<svg width="78" height="78" viewBox="0 0 78 78" fill="none" xmlns="http://www.w3.org/2000/svg">
<path d="M39 63.1875C37.5165 63.1875 36.3125 61.9835 36.3125 60.5V46.1703C36.3125 44.6868 37.5165 43.4828 39 43.4828C40.4835 43.4828 41.6875 44.6868 41.6875 46.1703V60.5C41.6875 61.9835 40.4835 63.1875 39 63.1875Z" fill="#27C8A0"/>
<path d="M53.3297 77.5173H49.75C48.2665 77.5173 47.0625 76.3133 47.0625 74.8298C47.0625 73.3463 48.2665 72.1423 49.75 72.1423H53.3297C62.7145 72.1423 67.423 72.1423 69.7772 69.7773C72.1422 67.4123 72.1422 62.7038 72.1422 53.3298C72.1422 43.9558 72.1422 39.2365 69.7772 36.8823C67.4122 34.528 62.7037 34.5173 53.3297 34.5173H24.6702C15.2855 34.5173 10.577 34.5173 8.22273 36.8823C5.86848 39.2473 5.85773 43.9558 5.85773 53.3298C5.85773 62.7038 5.85773 67.423 8.22273 69.7773C10.5877 72.1423 15.2962 72.1423 24.6702 72.1423H35.4202C36.9037 72.1423 38.1077 73.3463 38.1077 74.8298C38.1077 76.3133 36.9037 77.5173 35.4202 77.5173H24.6702C19.4135 77.5173 15.6187 77.5173 12.512 77.098C8.85698 76.6035 6.35223 75.5178 4.41723 73.5828C2.47148 71.637 1.38573 69.143 0.901977 65.488C0.482727 62.3813 0.482727 58.5865 0.482727 53.3298C0.482727 48.073 0.482727 44.2783 0.901977 41.1715C1.39648 37.5165 2.48223 35.0118 4.41723 33.0768C6.36298 31.131 8.85698 30.0453 12.512 29.5615C15.6187 29.1423 19.4135 29.1423 24.6702 29.1423H53.3405C58.5972 29.1423 62.392 29.1423 65.4987 29.5615C69.1537 30.056 71.6585 31.1418 73.5935 33.0768C75.5285 35.0118 76.625 37.5165 77.1087 41.1715C77.528 44.2783 77.528 48.073 77.528 53.3298C77.528 58.5865 77.528 62.3813 77.1087 65.488C76.6142 69.143 75.5285 71.6478 73.5935 73.5828C71.6585 75.5178 69.1537 76.6143 65.4987 77.098C62.3812 77.5173 58.5865 77.5173 53.3297 77.5173Z" fill="#27C8A0"/>
<path d="M17.5 34.5173C16.0165 34.5173 14.8125 33.3133 14.8125 31.8298V24.6595C14.8125 23.305 14.92 21.9505 15.1458 20.6283C15.393 19.1663 16.7797 18.1773 18.2417 18.4245C19.7037 18.6718 20.6927 20.0585 20.4455 21.5205C20.2735 22.5525 20.1875 23.606 20.1875 24.6595V31.8298C20.1875 33.3133 18.9835 34.5173 17.5 34.5173ZM59.8228 21.9828C58.6295 21.9828 57.533 21.1765 57.2213 19.9618C55.082 11.652 47.5893 5.85776 39 5.85776C33.6572 5.85776 28.5403 8.14751 24.982 12.125C23.993 13.2323 22.2945 13.329 21.1873 12.34C20.08 11.351 19.9833 9.65251 20.9723 8.54526C25.5625 3.41751 32.1308 0.482758 39 0.482758C50.0402 0.482758 59.6723 7.94326 62.4243 18.6288C62.7898 20.0693 61.9298 21.5313 60.4893 21.8968C60.2635 21.9505 60.0378 21.9828 59.8228 21.9828Z" fill="#27C8A0"/>
</svg>
